<svg xmlns="http://www.w3.org/2000/svg" viewBox="0 0 64 64" id="wedding-cheers">
  <path d="m63.966 58.08-.329-1.225c-.378-1.433-1.78-2.374-3.257-2.198l-4.439.536-3.253-12.137c3.71-2.266 5.814-6.68 4.98-11.133l-3.141-16.785a1 1 0 0 0-1.242-.782l-21.25 5.694c-.013.003-.022.013-.035.017-.013-.004-.022-.014-.035-.017l-21.25-5.694a1.003 1.003 0 0 0-1.242.782L6.331 31.923c-.833 4.453 1.271 8.867 4.981 11.133L8.059 55.193l-4.438-.536c-1.483-.18-2.881.766-3.257 2.194l-.33 1.23a1.002 1.002 0 0 0 .707 1.225l17.39 4.66a1.001 1.001 0 0 0 1.225-.706l.331-1.235c.376-1.43-.342-2.912-1.726-3.535l-4.11-1.75 3.253-12.14c4.344-.11 8.37-2.874 9.874-7.145L32 23.193l5.022 14.262c1.504 4.271 5.53 7.035 9.874 7.145l3.253 12.14-4.13 1.758a3.025 3.025 0 0 0-1.705 3.531l.33 1.23a1 1 0 0 0 1.225.707l17.39-4.66a1 1 0 0 0 .707-1.225Zm-51.697.16 4.89 2.082c.463.208.718.721.595 1.189l-.07.264-15.459-4.142.072-.269a1 1 0 0 1 1.083-.722l5.3.64c.491.055.957-.252 1.086-.733l3.378-12.605c.31.115.625.218.95.304.326.088.654.14.982.195l-3.382 12.618a1 1 0 0 0 .574 1.179ZM25.09 36.79c-1.503 4.27-6.107 6.697-10.48 5.526-4.373-1.172-7.146-5.576-6.314-10.026l.43-2.29h18.756l-2.392 6.79Zm3.096-8.79H9.1l2.14-11.434 19.165 5.135L28.187 28ZM52.76 16.566 54.9 28H35.813l-2.218-6.298 19.165-5.135ZM38.909 36.791l-2.392-6.79h18.757l.429 2.29c.832 4.45-1.94 8.854-6.314 10.026-4.372 1.171-8.977-1.256-10.48-5.526Zm7.407 24.985-.069-.26c-.124-.472.131-.986.575-1.186l4.91-2.09a1 1 0 0 0 .574-1.179l-3.382-12.617c.328-.056.656-.108.983-.195.324-.087.64-.19.949-.305l3.378 12.605c.13.481.592.79 1.086.734l5.3-.64a1 1 0 0 1 1.084.726l.07.264-15.458 4.143Z"></path>
  <path d="M31.783 15.976a.984.984 0 0 0 .434 0C32.617 15.887 42 13.713 42 6c0-3.309-2.691-6-6-6-1.322 0-2.772.446-4 1.215C30.772.446 29.322 0 28 0c-3.309 0-6 2.691-6 6 0 7.713 9.384 9.887 9.783 9.976ZM28 2c1.123 0 2.391.458 3.392 1.224a1 1 0 0 0 1.216 0C33.608 2.457 34.878 2 36 2c2.206 0 4 1.794 4 4 0 5.539-6.695 7.617-8 7.968-1.305-.351-8-2.43-8-7.968 0-2.206 1.794-4 4-4Z"></path>
</svg>
