<svg xmlns="http://www.w3.org/2000/svg" enable-background="new 0 0 512 512" viewBox="0 0 512 512" id="dinner">
  <path d="M295.737,117.635c-0.794-5.442-3.388-10.454-7.508-14.382c-8.736-8.33-22.221-9.445-32.229-3.344
		c-10.011-6.102-23.493-4.985-32.229,3.344c-4.109,3.916-6.701,8.911-7.502,14.335C156.13,134.877,112,190.376,112,256
		c0,79.402,64.598,144,144,144s144-64.598,144-144C400,190.383,355.869,134.921,295.737,117.635z M234.811,114.834
		c1.967-1.875,4.61-2.812,7.255-2.812c2.644,0,5.288,0.938,7.253,2.812l1.161,1.107c3.092,2.946,7.949,2.946,11.041,0l1.16-1.107
		c3.935-3.749,10.576-3.747,14.509,0c1.812,1.728,2.811,3.996,2.811,6.386s-0.998,4.658-2.812,6.386L256,147.805l-21.189-20.198
		c-1.812-1.728-2.811-3.996-2.811-6.386S232.998,116.562,234.811,114.834z M256,384c-70.579,0-128-57.42-128-128
		c0-57.802,38.517-106.763,91.229-122.6c1.202,2.103,2.721,4.052,4.542,5.788l26.71,25.46c1.545,1.473,3.532,2.209,5.52,2.209
		s3.975-0.736,5.52-2.209l26.709-25.46c1.808-1.724,3.318-3.658,4.516-5.744C345.466,149.267,384,198.194,384,256
		C384,326.58,326.579,384,256,384z"></path>
  <path d="M301.05,206.686c-14.751-16.189-40.139-19.545-58.575-7.093c-5.944,4.016-10.634,9.277-13.804,15.357
		c-13.58-0.257-26.836,6.818-33.89,18.738c-17.584-4.105-36.526,5.084-43.798,22.01c-3.896,9.067-3.947,18.966-0.145,27.872
		s10.988,15.716,20.233,19.174l56.161,21.005c0.922,0.345,1.869,0.509,2.801,0.509c3.11,0,6.056-1.826,7.353-4.844l14.665-34.134
		l24.57,32.865c1.566,2.095,3.971,3.21,6.413,3.21c1.544,0,3.103-0.446,4.473-1.371l61.153-41.31
		c9.644-6.514,16.002-16.297,17.902-27.546s-0.891-22.578-7.858-31.898C345.383,201.416,320.298,196.242,301.05,206.686z
		 M225.695,306.092l-49.02-18.334c-5.105-1.91-9.056-5.628-11.123-10.47c-2.067-4.842-2.021-10.267,0.131-15.274
		c3.543-8.247,11.863-13.327,20.481-13.327c2.527,0,5.08,0.437,7.545,1.359l2.441,0.914c4.005,1.498,8.469-0.412,10.154-4.334
		l1.029-2.396c4.582-10.665,17.155-16.035,28.026-11.967c5.105,1.909,9.056,5.627,11.123,10.469
		c2.067,4.842,2.021,10.267-0.132,15.277L225.695,306.092z M345.889,228.811c4.322,5.781,6.061,12.761,4.896,19.653
		c-1.165,6.892-5.1,12.913-11.082,16.954l-54.835,37.041l-25.528-34.147l1.714-3.99c3.896-9.068,3.947-18.968,0.145-27.874
		c-3.237-7.582-8.932-13.634-16.255-17.403c1.751-2.368,3.928-4.465,6.488-6.193c4.868-3.289,10.488-4.867,16.082-4.867
		c8.933,0,17.796,4.026,23.414,11.541l1.922,2.57c2.557,3.419,7.347,4.228,10.885,1.838l2.658-1.795
		C319.034,213.598,336.752,216.591,345.889,228.811z"></path>
  <path d="M511.71,442.085l-70.055-361.49c-0.615-3.177-3.084-5.669-6.254-6.316c-3.174-0.647-6.419,0.68-8.229,3.361
		c-11.442,16.943-19.632,35.42-24.436,54.683C367.489,90.569,314.792,64,256,64c-53.435,0-101.832,21.95-136.671,57.299
		l5.154-30.389c0.738-4.356-2.194-8.486-6.55-9.225c-4.354-0.743-8.486,2.193-9.226,6.549l-9.741,57.438
		c-2.87,4.073-5.588,8.261-8.141,12.558l-9.931-1.684l12.04-70.986c0.738-4.356-2.193-8.486-6.55-9.225
		c-4.36-0.742-8.486,2.193-9.226,6.549l-12.04,70.987l-15.773-2.675l12.039-70.987c0.738-4.356-2.194-8.486-6.55-9.225
		c-4.356-0.741-8.486,2.193-9.226,6.549L33.57,148.518c-4.356-0.742-8.486,2.193-9.225,6.549l-6.66,39.269
		c-1.437,8.472,0.512,16.997,5.486,24.003c3.356,4.727,7.822,8.376,12.971,10.695L6.538,403.586c0,0.001,0,0.002-0.001,0.003
		s0,0.002,0,0.003L0.262,440.59c-1.702,10.041,5.081,19.596,15.122,21.298l10.903,1.85c1.045,0.177,2.09,0.265,3.128,0.265
		c3.797,0,7.494-1.171,10.653-3.415c4.022-2.856,6.692-7.108,7.518-11.972L71.341,308.56C94.252,388.958,168.351,448,256,448
		c84.953,0,157.145-55.479,182.363-132.098l26.224,135.316c1.461,7.534,8.086,12.782,15.49,12.782c0.992,0,1.999-0.095,3.009-0.29
		l16.131-3.126C507.761,458.928,513.365,450.63,511.71,442.085z M33.46,197.012l5.322-31.381l63.1,10.702l-5.323,31.381
		c-1.49,8.791-9.865,14.728-18.646,13.239l-31.214-5.294c-4.259-0.723-7.98-3.06-10.481-6.582
		C33.717,205.555,32.737,201.27,33.46,197.012z M39.424,401.052l-15.774-2.675l28.092-165.635l15.774,2.675L39.424,401.052z
		 M28.963,447.964l-10.903-1.85c-1.343-0.228-2.251-1.506-2.022-2.849l4.938-29.114l15.774,2.675l-4.938,29.115
		C31.583,447.284,30.298,448.186,28.963,447.964z M256,432c-96.578,0-175.225-78.195-175.982-174.598l3.451-20.345
		c14.207-1.267,26.371-11.961,28.865-26.667l6.66-39.269c0.354-2.092-0.137-4.239-1.364-5.969c-1.229-1.73-3.094-2.901-5.186-3.256
		l0,0l1.682-9.919C146.188,108.362,197.84,80,256,80c58.783,0,110.9,28.986,142.878,73.397c-2.073,17.478-1.451,35.363,1.994,53.139
		l17.525,90.436c0.403,2.083,1.618,3.92,3.376,5.108c1.107,0.747,2.373,1.197,3.679,1.328C404.706,377.495,336.621,432,256,432z
		 M446.437,285.776c-1.332-0.899-2.894-1.37-4.478-1.37c-0.507,0-1.017,0.048-1.522,0.146l-7.854,1.522l-16.004-82.582
		c-6.596-34.036-1.827-68.514,13.406-99.021l56.844,293.322l-15.709,3.044l-21.308-109.954
		C449.409,288.801,448.194,286.963,446.437,285.776z M480.253,447.961l-6.088-31.415l15.709-3.044l6.088,31.415L480.253,447.961z"></path>
  <path d="M453.101,265.8l-16.743-86.393c-0.839-4.338-5.039-7.172-9.376-6.332c-4.337,0.841-7.172,5.039-6.331,9.376l16.743,86.393
		c0.74,3.824,4.09,6.479,7.845,6.479c0.505,0,1.017-0.048,1.531-0.147C451.106,274.335,453.941,270.138,453.101,265.8z"></path>
</svg>
