<svg xmlns="http://www.w3.org/2000/svg" viewBox="0 0 32 32" id="wedding-ring">
  <g>
    <path d="M21 4a.49971.49971 0 0 0 .5-.5v-1a.5.5 0 0 0-1 0v1A.49971.49971 0 0 0 21 4zM18.14648 3.85352a.49995.49995 0 0 0 .707-.707l-1-1a.49995.49995 0 0 0-.707.707zM23.5 4a.49838.49838 0 0 0 .35352-.14648l1-1a.49995.49995 0 0 0-.707-.707l-1 1A.5.5 0 0 0 23.5 4zM9.91113 9.71191A.5002.5002 0 0 0 8.915 9.61914a4.71455 4.71455 0 0 1-.95117 2.165.50022.50022 0 0 0 .82129.57129A5.84782 5.84782 0 0 0 9.91113 9.71191z"></path>
    <path d="M23.27332,12.30225,25.8999,8.7998c.00452-.006.0036-.0141.00781-.02026.00476-.00684.01318-.0097.01758-.01685a.48524.48524,0,0,0,.04572-.14777.36344.36344,0,0,0-.02374-.33856l-1.5-3A.48929.48929,0,0,0,24,5.02222V5H18v.02222a.48929.48929,0,0,0-.44727.25415l-1.5,3a.36344.36344,0,0,0-.02374.33856.48524.48524,0,0,0,.04572.14777c.00439.00714.01282.01.01758.01685.00421.00616.0033.01422.00781.02026L18.735,12.31335a8.89628,8.89628,0,0,0-2.71741,1.21582,8.96034,8.96034,0,0,0-3.43219-1.39.49989.49989,0,0,0-.1748.98438,7.96135,7.96135,0,0,1,3.31482,1.41888c.00684.00446.01221.01086.01929.015a7.98929,7.98929,0,0,1,1.33319,1.23749l.00018.00055.0047.00482a7.9894,7.9894,0,0,1,.31726,9.98853,6.03112,6.03112,0,0,1-.764-.68353,6.93861,6.93861,0,0,0-1.811-9.96045l-.0033-.00415c-.01086-.00916-.02448-.01154-.03589-.01965a6.81561,6.81561,0,0,0-4.80121-1.03876c2.82306-3.63672,1.81744-5.96722,1.3996-6.63837A2.918,2.918,0,0,0,8.08594,6.11523,2.70476,2.70476,0,0,0,6.38281,7.95313a2.70607,2.70607,0,0,0-2.46143-.46875,2.91419,2.91419,0,0,0-1.8667,3.02637c.06244.7981.64551,3.32568,5.23792,4.56244A6.98542,6.98542,0,0,0,14.4,27.09784a9.06651,9.06651,0,0,0,.74139.7196A7.92141,7.92141,0,0,1,11,29,7.99974,7.99974,0,0,1,4.999,15.71a.50022.50022,0,0,0-.75-.66211,8.9858,8.9858,0,0,0,11.73615,13.4212,8.99444,8.99444,0,1,0,7.28815-16.16681ZM3.05176,10.43262a1.90617,1.90617,0,0,1,1.18164-1.998,1.40832,1.40832,0,0,1,.44336-.07031,2.0841,2.0841,0,0,1,1.32471.55908.78558.78558,0,0,0,.74951.14648.77616.77616,0,0,0,.51465-.5625A1.84452,1.84452,0,0,1,8.39844,7.06543a1.91083,1.91083,0,0,1,2.13721.90723c.35791.5752,1.24756,2.71143-2.05615,6.3584C3.65479,13.355,3.10449,11.1084,3.05176,10.43262Zm19.13867,1.64746c-.05487-.00775-.11188-.01062-.167-.01752l-.00586-.00085L22.78107,9H24.5Zm-1.20282-.07983a.45456.45456,0,0,0-.00226-.05151L20.25006,9h1.49988l-.73529,2.94873a.45456.45456,0,0,0-.00226.05151L21,12ZM22.5,7.38184,21.80908,6h1.38184ZM21.69092,8H20.30908L21,6.61816ZM19.5,7.38184,18.80908,6h1.38184ZM24.69092,8H23.30908L24,6.61816ZM18,6.61816,18.69092,8H17.30908ZM19.21893,9l.76355,3.06189c-.05719.00708-.116.01013-.17291.01819L17.5,9ZM20,21a8.982,8.982,0,0,0-1.74176-5.32043,5.99469,5.99469,0,1,1-.01062,10.646A9.00624,9.00624,0,0,0,20,21Zm-4.01135,3.29089a5.91473,5.91473,0,0,1,.02277-6.58167,5.915,5.915,0,0,1-.02277,6.58167ZM11,27a6,6,0,1,1,2.75232-11.32562,8.95006,8.95006,0,0,0,.00079,10.63989A5.9589,5.9589,0,0,1,11,27Zm10,2a7.99165,7.99165,0,0,1-6.40009-12.78876,6.04277,6.04277,0,0,1,.76392.68341A7.018,7.018,0,1,0,17.611,14.89624a8.98986,8.98986,0,0,0-.73932-.72174,7.89351,7.89351,0,0,1,2.80768-1.06207c.07153-.0119.14435-.01587.21594-.02637A8.08538,8.08538,0,0,1,21,13c.22894,0,.4541.01544.67822.03436.15106.01453.30121.03241.44971.05463A7.99514,7.99514,0,0,1,21,29Z"></path>
  </g>
</svg>
