<svg xmlns="http://www.w3.org/2000/svg" viewBox="0 0 32 32" id="trumpet">
  <g>
    <path d="M29.75293,26.52539,21.46759,7.6499a1.00133,1.00133,0,0,0-.27032-.52881L21.19244,7.118a.49922.49922,0,0,0-.16864-.10724c-.8551-.54-2.63361.25476-5.3197,2.39941a.49963.49963,0,0,0,.623.78125c2.49414-1.98907,3.82965-2.44867,4.11945-2.3783l.05774.13165c.00189.72906-1.49481,3.35931-4.81842,6.78113l-.01617-.01349a9.5512,9.5512,0,0,0-.5722-.86224,8.028,8.028,0,0,1,.10657-5.50055A7.60584,7.60584,0,0,1,24.85645,3.666a.5004.5004,0,1,0,.35547-.93555A8.61,8.61,0,0,0,14.27051,7.99219a9.1624,9.1624,0,0,0-.56708,4.1004,9.04353,9.04353,0,0,1-.75909-4.23029,5.48025,5.48025,0,0,1,2.82617-4.7041.5005.5005,0,1,0-.44531-.89648A6.34,6.34,0,0,0,11.94629,7.791a9.98429,9.98429,0,0,0,.42029,3.59851,9.50222,9.50222,0,0,0-10.14587.29211.49945.49945,0,0,0,.55859.82813,8.49907,8.49907,0,0,1,10.32452.64368c.08606.15894.17859.30981.27289.46075a12.35337,12.35337,0,0,0-3.85327-.56049,7.492,7.492,0,0,0-7.49121,7.47656A7.40362,7.40362,0,0,0,4.36328,25.9502a.49943.49943,0,1,0,.6875-.72461,6.41694,6.41694,0,0,1-2.01855-4.69531,6.49128,6.49128,0,0,1,6.49121-6.47656c1.38684,0,3.76331.20044,5.17725,1.39313.00922.017.01563.03522.0249.05219a.46742.46742,0,0,0,.093.09546C11.35345,18.97455,8.68463,20.51,7.93561,20.544l-.15-.06549c-.08276-.36707.52429-1.9848,3.00439-4.89551a.50017.50017,0,0,0-.76172-.64844C8.45575,16.78088,5.9967,20.0282,7.04694,21.18439c.00812.00977.01312.02118.022.0304l.00427.00592c.01172.01172.02875.01483.041.02576a.48433.48433,0,0,0,.11237.07874l.04163.01819a.97226.97226,0,0,0,.24792.10828l19.00439,8.30127.01825.00592.00616.00385.01288.00238A2.83393,2.83393,0,0,0,27.6582,30a2.32188,2.32188,0,0,0,1.666-.67871A2.46542,2.46542,0,0,0,29.75293,26.52539ZM26.438,28.626l-1.9151-.83649,2.10217-5.90063,1.26233,2.87585Zm-5.794-2.53082,3.50659-9.84351,1.88873,4.3028-2.43463,6.834Zm-2.89948-1.26654,4.5556-12.79266,1.26477,2.88135L19.72583,25.69409Zm-1.84735-8.89a.485.485,0,0,0,.09076-.092,28.01943,28.01943,0,0,0,5.10974-6.55011l.6167,1.40491L16.82635,24.42755,9.24823,21.11737A28.66443,28.66443,0,0,0,15.89722,15.93866Zm12.72,12.6756a1.36966,1.36966,0,0,1-1.24164.35809l1.08734-2.89667.374.85205A1.46943,1.46943,0,0,1,28.61719,28.61426Z"></path>
    <path d="M3.15332,7.48145l-.22949,1.332a.50078.50078,0,0,0,.49316.585.49335.49335,0,0,0,.23242-.05762l1.19922-.62891,1.2002.62891a.494.494,0,0,0,.52637-.03809.50024.50024,0,0,0,.19922-.48926l-.22949-1.332.96973-.94336a.5002.5002,0,0,0-.27734-.85352L5.89746,5.49121,5.29688,4.27832a.52082.52082,0,0,0-.89648,0L3.80078,5.49121l-1.33984.19336a.5002.5002,0,0,0-.27734.85352ZM4.2041,6.44336a.50073.50073,0,0,0,.377-.27344l.26758-.542.26855.542a.50073.50073,0,0,0,.377.27344l.5957.08594-.43066.41895a.502.502,0,0,0-.14453.44336l.10254.59375-.53613-.28027a.49759.49759,0,0,0-.46484,0l-.53516.28027.10254-.59375a.502.502,0,0,0-.14453-.44336L3.6084,6.5293Z"></path>
    <path d="M8.15332 5.48145l-.22949 1.332a.50078.50078 0 0 0 .49316.585.49335.49335 0 0 0 .23242-.05762l1.19922-.62891 1.2002.62891a.4939.4939 0 0 0 .52637-.03809.50024.50024 0 0 0 .19922-.48926l-.22949-1.332.96973-.94336a.5002.5002 0 0 0-.27734-.85352l-1.33984-.19336-.60059-1.21289a.52082.52082 0 0 0-.89648 0L8.80078 3.49121l-1.33984.19336a.5002.5002 0 0 0-.27734.85352zM9.2041 4.44336a.50073.50073 0 0 0 .377-.27344l.26758-.542.26855.542a.50073.50073 0 0 0 .377.27344l.5957.08594-.43066.41895a.502.502 0 0 0-.14453.44336l.10254.59375-.53613-.28027a.49759.49759 0 0 0-.46484 0l-.53516.28027.10254-.59375a.502.502 0 0 0-.14453-.44336L8.6084 4.5293zM11.2334 24.61523L9.89258 24.4209 9.293 23.208a.50011.50011 0 0 0-.89648 0L7.7959 24.4209l-1.34082.19434a.50033.50033 0 0 0-.27637.85352l.96973.94336-.22949 1.33105a.50025.50025 0 0 0 .72559.52734l1.2002-.62891 1.19922.62891a.49335.49335 0 0 0 .23242.05762.50078.50078 0 0 0 .49316-.585L10.54 26.41211l.96973-.94336a.50033.50033 0 0 0-.27637-.85352zM9.6543 25.87891a.502.502 0 0 0-.14453.44336l.10254.59277-.53516-.28027a.50135.50135 0 0 0-.46484 0l-.53613.28027.10254-.59277a.502.502 0 0 0-.14453-.44336L7.60352 25.459 8.2002 25.373a.5031.5031 0 0 0 .376-.27344l.26855-.542.26758.542a.5031.5031 0 0 0 .376.27344l.59668.08594zM24.77637 5.48438l-1.3418.19434a.50033.50033 0 0 0-.27637.85352l.9707.94336-.22949 1.33105A.50025.50025 0 0 0 24.625 9.334l1.19922-.62891 1.19922.62891a.49335.49335 0 0 0 .23242.05762.50078.50078 0 0 0 .49316-.585l-.22949-1.33105.9707-.94336a.50033.50033 0 0 0-.27637-.85352l-1.3418-.19434-.59961-1.21289a.52159.52159 0 0 0-.89648 0zm.78027.67871l.26758-.541.26758.541a.50079.50079 0 0 0 .376.27344l.59766.08594-.43164.41992a.502.502 0 0 0-.14453.44336l.10254.59277-.53516-.28027a.49759.49759 0 0 0-.46484 0l-.53516.28027.10254-.59277a.502.502 0 0 0-.14453-.44336L24.583 6.52246l.59766-.08594A.50079.50079 0 0 0 25.55664 6.16309z"></path>
  </g>
</svg>
