<svg xmlns="http://www.w3.org/2000/svg" xml:space="preserve" id="wedding-board" x="0" y="0" enable-background="new 0 0 64 64" version="1.1" viewBox="0 0 64 64">
  <path d="M59.55,41.57c-0.27,0-0.49-0.22-0.49-0.49V0.98H4.95v40.09c0,0.27-0.22,0.49-0.49,0.49c-0.27,0-0.49-0.22-0.49-0.49V0.49
			C3.96,0.22,4.18,0,4.45,0h55.09c0.27,0,0.49,0.22,0.49,0.49v40.58C60.04,41.35,59.82,41.57,59.55,41.57z"></path>
  <path d="M62.96,48.19H1.04c-0.27,0-0.49-0.22-0.49-0.49v-6.62c0-0.27,0.22-0.49,0.49-0.49h61.92c0.27,0,0.49,0.22,0.49,0.49v6.62
			C63.45,47.97,63.23,48.19,62.96,48.19z M1.53,47.2h60.94v-5.63H1.53V47.2z"></path>
  <path d="M33.77 62.76h-4.39c-.27 0-.49-.22-.49-.49V47.69c0-.27.22-.49.49-.49s.49.22.49.49v14.08h3.4V47.69c0-.27.22-.49.49-.49s.49.22.49.49v14.57C34.26 62.54 34.04 62.76 33.77 62.76zM55.52 64c-.13 0-.25-.05-.35-.14L39.36 48.04c-.19-.19-.19-.5 0-.7.19-.19.5-.19.7 0l15.81 15.81c.19.19.19.5 0 .7C55.77 63.95 55.64 64 55.52 64zM61.73 64c-.13 0-.25-.05-.35-.14L45.57 48.04c-.19-.19-.19-.5 0-.7.19-.19.5-.19.7 0l15.81 15.81c.19.19.19.5 0 .7C61.98 63.95 61.86 64 61.73 64zM8.48 64c-.13 0-.25-.05-.35-.14-.19-.19-.19-.5 0-.7l15.81-15.81c.19-.19.5-.19.7 0 .19.19.19.5 0 .7L8.83 63.86C8.73 63.95 8.61 64 8.48 64zM2.27 64c-.13 0-.25-.05-.35-.14-.19-.19-.19-.5 0-.7l15.81-15.81c.19-.19.5-.19.7 0 .19.19.19.5 0 .7L2.62 63.86C2.52 63.95 2.4 64 2.27 64z"></path>
  <path d="M8.59 64H2.38c-.27 0-.49-.22-.49-.49 0-.27.22-.49.49-.49h6.21c.27 0 .49.22.49.49C9.08 63.78 8.86 64 8.59 64zM61.84 64h-6.21c-.27 0-.49-.22-.49-.49 0-.27.22-.49.49-.49h6.21c.27 0 .49.22.49.49C62.33 63.78 62.11 64 61.84 64zM15.14 19c-.82 0-1.69-.14-2.58-.43-3.51-1.13-6.05-4.05-5.79-6.64.09-.9.52-1.67 1.24-2.24.94-.73 2.28-1.05 3.81-.91.49-1.46 1.32-2.56 2.37-3.12.8-.43 1.69-.52 2.55-.24 2.48.8 4.13 4.3 3.75 7.97-.19 1.85-.88 3.42-1.94 4.41-.06.06-.12.11-.18.17-.01.01-.07.05-.08.06-.12.09-.2.16-.3.22-.08.05-.17.1-.26.15-.01 0-.13.07-.14.08-.08.04-.15.07-.23.1C16.71 18.86 15.95 19 15.14 19zM11.15 9.74c-1.02 0-1.91.25-2.53.73-.51.4-.8.92-.87 1.56-.22 2.11 2.07 4.62 5.11 5.6 1.53.49 3.04.5 4.13.03.06-.03.12-.05.18-.08l.32.39-.22-.44c.06-.03.13-.07.19-.11.07-.05.14-.1.2-.15.12-.1.17-.14.21-.18 0 0 0 0 .01-.01.87-.82 1.47-2.2 1.63-3.8.33-3.17-1.05-6.28-3.07-6.93-.61-.2-1.21-.14-1.78.17-.89.48-1.62 1.55-2.01 2.92-.07.24-.3.39-.54.36C11.78 9.76 11.46 9.74 11.15 9.74z"></path>
  <path d="M22.67 19c-.04 0-.08 0-.12 0l-.4-.03c-1.27-.17-2.54-.84-3.66-1.89-.2-.19-.21-.5-.02-.7.19-.2.5-.21.7-.02.97.91 2.05 1.48 3.04 1.62l.23.04.04-.01c.01 0 .11 0 .12 0 .04 0 .08 0 .12 0 .12 0 .18-.01.24-.02.03-.01.11-.02.14-.02.04-.01.08-.01.12-.02 1.22-.27 2.44-1.16 3.39-2.45 1.86-2.52 2.27-5.97.88-7.53-.43-.48-.97-.73-1.62-.76-1.03-.03-2.19.51-3.21 1.5C22.47 8.88 22.19 8.89 22 8.73c-1.23-.98-2.54-1.41-3.6-1.17-.26.06-.53-.1-.59-.37-.06-.27.1-.53.37-.59 1.25-.29 2.72.11 4.1 1.1 1.16-1.01 2.43-1.54 3.62-1.49.91.03 1.71.41 2.32 1.09 1.73 1.95 1.37 5.81-.83 8.77-1.11 1.5-2.51 2.5-3.92 2.81-.04.02-.13.03-.23.05-.03.01-.05.01-.07.01-.03.01-.08.01-.11.02-.1.01-.19.02-.3.02C22.74 19 22.71 19 22.67 19zM41.94 37.87c-.02 0-.03 0-.05 0-7.62-.78-13.36-7.16-13.36-14.83 0-8.23 6.7-14.93 14.93-14.93 8.23 0 14.93 6.7 14.93 14.93 0 2.61-.68 5.18-1.98 7.44-.14.23-.44.32-.67.18-.24-.13-.32-.44-.18-.67 1.21-2.11 1.85-4.51 1.85-6.95 0-7.69-6.25-13.94-13.94-13.94-7.69 0-13.94 6.25-13.94 13.94 0 7.17 5.36 13.12 12.48 13.86.27.03.47.27.44.54C42.41 37.68 42.19 37.87 41.94 37.87z"></path>
  <path d="M41.12,34.92c-0.03,0-0.07,0-0.1-0.01c-5.62-1.15-9.7-6.15-9.7-11.9c0-6.69,5.45-12.14,12.14-12.14
			c6.69,0,12.14,5.45,12.14,12.14c0,1.36-0.22,2.7-0.67,3.97c-0.09,0.26-0.37,0.39-0.63,0.3c-0.26-0.09-0.39-0.37-0.3-0.63
			c0.41-1.17,0.61-2.4,0.61-3.65c0-6.15-5-11.16-11.16-11.16c-6.15,0-11.16,5-11.16,11.16c0,5.28,3.75,9.88,8.91,10.93
			c0.27,0.05,0.44,0.31,0.38,0.58C41.55,34.76,41.35,34.92,41.12,34.92z"></path>
  <path d="M47.68,39.8c-0.88,0-1.74-0.3-2.45-0.86c-1.26,0.24-2.55-0.14-3.48-1.04c-0.92-0.89-1.34-2.15-1.15-3.41
			c-0.84-0.97-1.15-2.28-0.84-3.53c0.31-1.24,1.19-2.24,2.38-2.7c0.42-1.21,1.39-2.13,2.64-2.49c1.24-0.35,2.53-0.09,3.53,0.71
			c1.26-0.25,2.55,0.14,3.48,1.04c0.92,0.89,1.34,2.15,1.15,3.41c0.84,0.98,1.15,2.28,0.84,3.53c-0.31,1.24-1.19,2.24-2.38,2.7
			c-0.42,1.21-1.39,2.13-2.64,2.49C48.4,39.75,48.04,39.8,47.68,39.8z M45.36,37.91c0.12,0,0.24,0.04,0.33,0.13
			c0.77,0.69,1.81,0.94,2.8,0.66c1-0.29,1.76-1.05,2.04-2.06c0.04-0.16,0.17-0.29,0.33-0.34c0.98-0.31,1.72-1.1,1.97-2.09
			c0.25-1-0.03-2.05-0.76-2.79c-0.02-0.03-0.05-0.05-0.06-0.08c-0.07-0.11-0.09-0.24-0.07-0.37c0.22-1.01-0.09-2.04-0.83-2.75
			c-0.74-0.72-1.79-1-2.8-0.74c-0.16,0.04-0.33,0-0.45-0.11c-0.76-0.69-1.81-0.94-2.8-0.66c-1,0.28-1.76,1.05-2.04,2.06
			c-0.04,0.16-0.17,0.29-0.33,0.34c-0.98,0.31-1.72,1.1-1.97,2.09c-0.24,0.97,0.02,1.99,0.7,2.73c0.01,0.01,0.02,0.02,0.03,0.04
			c0.13,0.12,0.19,0.31,0.16,0.48c-0.22,1.01,0.09,2.04,0.83,2.75c0.74,0.72,1.79,1,2.8,0.74C45.28,37.92,45.32,37.91,45.36,37.91z"></path>
  <path d="M52.41,31.57c-0.05,0-0.1-0.01-0.16-0.02c-0.09-0.03-0.16-0.08-0.22-0.15c-0.47-0.5-1.42-0.91-2.68-1.17
			c-0.27-0.05-0.44-0.31-0.38-0.58c0.05-0.27,0.32-0.44,0.58-0.38c1.04,0.21,2.44,0.64,3.21,1.47c0.02,0.02,0.04,0.05,0.06,0.08
			c0.08,0.12,0.1,0.27,0.05,0.42C52.81,31.44,52.62,31.57,52.41,31.57z"></path>
  <g>
    <path d="M46.22,37.6c-0.23,0-0.47-0.03-0.71-0.09c-0.86-0.23-1.55-0.84-1.88-1.65c-0.28-0.11-0.55-0.27-0.77-0.47
			c-0.43-0.36-0.73-0.84-0.88-1.38c-0.24-0.85-0.05-1.75,0.49-2.45c-0.13-0.87,0.15-1.73,0.77-2.35c0.62-0.63,1.5-0.92,2.36-0.8
			c0.68-0.54,1.57-0.73,2.43-0.51c0.86,0.23,1.55,0.84,1.88,1.65c0.81,0.32,1.42,1,1.65,1.85c0.24,0.86,0.06,1.75-0.49,2.45
			c0.13,0.86-0.15,1.73-0.77,2.36c-0.62,0.63-1.49,0.92-2.36,0.8C47.44,37.4,46.84,37.6,46.22,37.6z M45.23,29.37
			c-0.49,0-0.94,0.19-1.28,0.53c-0.44,0.44-0.61,1.07-0.47,1.69c0.04,0.16-0.01,0.33-0.12,0.45c-0.43,0.46-0.59,1.1-0.43,1.71
			c0.09,0.35,0.29,0.66,0.57,0.89c0.19,0.16,0.42,0.29,0.66,0.36c0.16,0.05,0.28,0.17,0.33,0.33c0.18,0.61,0.66,1.07,1.27,1.23
			c0.61,0.16,1.24-0.01,1.7-0.44c0.12-0.11,0.29-0.16,0.45-0.12c0.62,0.15,1.25-0.04,1.69-0.48c0.44-0.45,0.62-1.08,0.47-1.69
			c-0.04-0.16,0.01-0.33,0.12-0.45c0.44-0.46,0.6-1.1,0.43-1.71c-0.17-0.61-0.62-1.07-1.23-1.25c-0.16-0.05-0.28-0.17-0.33-0.33
			c-0.18-0.61-0.66-1.06-1.27-1.23c-0.61-0.15-1.24,0.01-1.69,0.44c-0.12,0.11-0.29,0.16-0.45,0.12c0,0-0.01,0-0.01,0
			C45.5,29.39,45.36,29.37,45.23,29.37z M47.12,35.37c-0.28,0-0.57-0.08-0.82-0.22c0,0-0.01,0-0.01-0.01
			c-0.47,0.08-0.95-0.07-1.31-0.38c-0.37-0.32-0.57-0.77-0.56-1.25c-0.29-0.37-0.41-0.85-0.32-1.32c0.09-0.48,0.39-0.88,0.8-1.11
			c0.17-0.44,0.53-0.78,0.98-0.94c0.32-0.11,0.66-0.12,0.98-0.03c0.13,0.04,0.26,0.09,0.38,0.17c0.47-0.07,0.94,0.07,1.3,0.38
			c0.37,0.32,0.57,0.77,0.56,1.25c0.29,0.37,0.41,0.85,0.32,1.32c-0.09,0.48-0.39,0.88-0.8,1.11c-0.17,0.44-0.53,0.78-0.98,0.94
			C47.48,35.34,47.3,35.37,47.12,35.37z M46.4,34.12c0.11,0,0.22,0.04,0.31,0.11c0.03,0.02,0.06,0.04,0.09,0.06
			c0.17,0.1,0.37,0.12,0.54,0.06c0.21-0.07,0.37-0.25,0.42-0.47c0.04-0.16,0.15-0.29,0.31-0.35c0.21-0.08,0.37-0.26,0.41-0.48
			c0.04-0.22-0.03-0.44-0.2-0.6c-0.12-0.11-0.18-0.28-0.15-0.44c0.04-0.23-0.04-0.45-0.21-0.6c0,0,0,0,0,0
			c-0.17-0.15-0.4-0.2-0.62-0.13c-0.16,0.05-0.33,0.02-0.45-0.09c-0.08-0.06-0.16-0.1-0.24-0.13c-0.13-0.04-0.26-0.03-0.39,0.01
			c-0.21,0.07-0.37,0.25-0.42,0.47c-0.04,0.16-0.15,0.29-0.31,0.35c-0.21,0.08-0.37,0.26-0.41,0.48c-0.04,0.22,0.03,0.44,0.19,0.6
			c0.12,0.11,0.18,0.28,0.15,0.44c-0.04,0.23,0.04,0.45,0.21,0.6c0.17,0.15,0.4,0.2,0.62,0.13C46.3,34.13,46.35,34.12,46.4,34.12z"></path>
  </g>
  <g>
    <path d="M53.39,34.31c-0.24,0-0.46-0.18-0.49-0.43c-0.03-0.27,0.16-0.52,0.42-0.55l0.96-0.12c1.11-0.14,2.03-0.96,2.31-2.05
			c0.04-0.17,0.07-0.35,0.08-0.52l-1.1,0.14c-0.89,0.11-1.67,0.66-2.08,1.46c-0.12,0.24-0.42,0.34-0.66,0.21
			c-0.24-0.12-0.34-0.42-0.21-0.66c0.56-1.09,1.62-1.83,2.83-1.98l1.63-0.21c0.27-0.04,0.52,0.15,0.55,0.42
			c0.06,0.46,0.03,0.93-0.08,1.39c-0.37,1.47-1.63,2.59-3.14,2.78l-0.96,0.12C53.43,34.31,53.41,34.31,53.39,34.31z"></path>
  </g>
  <g>
    <path d="M52.47,30.5c-0.27,0-0.49-0.22-0.49-0.49V30c0-0.27,0.22-0.49,0.49-0.49s0.49,0.22,0.49,0.49S52.74,30.5,52.47,30.5z"></path>
  </g>
  <g>
    <path d="M54.81,30.95c-0.27,0-0.49-0.22-0.49-0.49v-0.01c0-0.06,0.01-0.13,0.04-0.19c0.17-0.41,0.26-0.84,0.26-1.29
			c0-0.67-0.19-1.32-0.56-1.88c-0.18-0.28-0.4-0.52-0.64-0.73l-1.11-0.94c-0.34,0.53-0.51,1.14-0.51,1.79
			c0,0.16,0.01,0.31,0.03,0.46c0,0.27-0.22,0.54-0.49,0.54c-0.27,0-0.49-0.18-0.49-0.45c-0.03-0.13-0.04-0.34-0.04-0.55
			c0-1.04,0.37-2.04,1.03-2.82c0.17-0.2,0.48-0.23,0.69-0.06l1.52,1.27c0.32,0.27,0.6,0.59,0.84,0.95c0.47,0.72,0.72,1.56,0.72,2.41
			c0,0.57-0.11,1.12-0.33,1.65C55.21,30.82,55.03,30.95,54.81,30.95z"></path>
  </g>
</svg>
